<?xml version="1.0" encoding="UTF-8"?>
<svg id="Layer_2" xmlns="http://www.w3.org/2000/svg" viewBox="0 0 198.61 162.62">
  <g id="Layer_1-2">
    <g id="Logo">
      <path id="_8"
            d="m198.61,151.34c-19.35,12.54-54.52,4.92-70.5-14.81-17.19-21.23-19.97-63.32,13.88-86.67-7.53-13.68-15.07-27.38-22.61-41.08,10.83-7.19,34.83-7.79,50.66,8.8,6.14,6.44,10.08,14,11.69,22.74,1.64,8.84.57,17.39-2.99,25.64-3.53,8.17-9.22,14.53-16.56,19.63,12.18,21.99,24.27,43.81,36.43,65.75Z" fill="#B0FF06"/>
      <path id="degree"
            d="m104.39,18.49c-.01,9.21-4.24,15.85-11.59,18.2-12.95,4.13-24.46-5.75-22.9-19.68.99-8.83,5.24-14.63,12.41-16.34,12.99-3.1,22.44,4.85,22.09,17.82Zm-9.6.63c-.3-1.76-.41-3.26-.83-4.66-.97-3.21-3.43-5.09-6.49-5.16-3.13-.07-5.64,1.61-6.86,4.7-1.29,3.29-1.3,6.61.07,9.88,1.17,2.78,3.39,4.28,6.34,4.37,3,.09,5.28-1.39,6.45-4.14.7-1.63.93-3.46,1.32-4.99Z" fill="#fff"/>
    </g>
  </g>
</svg>
